# xmcd
#
# Track frame offsets:
#	150
#	19607
#	41782
#	64324
#	85977
#	105406
#	125911
#	148842
#	172623
#	194342
#	218990
#
# Disc length: 3174 seconds
#
# Revision: 3
# Processed by: cddbd v1.5.2PL0 Copyright (c) Steve Scherf et al.
# Submitted via: EZCDAudioConverter 8.0.2.1
#
DISCID=9e0c640b
DTITLE=Đan Nguyên - Những Lời Này Cho Em
DYEAR=2008
DGENRE=Miscellaneous
TTITLE0=Trên bốn vùng chiến thuật
TTITLE1=LK Một ngày không có ai, Ngày vui qua mau
TTITLE2=Những Lời Này Cho Em
TTITLE3=Linh hồn tượng đá
TTITLE4=Hai lối mộng
TTITLE5=Hãy quên anh
TTITLE6=Xin làm người xa lạ
TTITLE7=Buồn trong kỷ niệm
TTITLE8=Đôi mắt người xưa
TTITLE9=Căn nhà màu tím
TTITLE10=Về đâu mái tóc người thương
EXTD=
EXTT0=
EXTT1=
EXTT2=
EXTT3=
EXTT4=
EXTT5=
EXTT6=
EXTT7=
EXTT8=
EXTT9=
EXTT10=
PLAYORDER=
